<?xml version="1.0" encoding="UTF-8" standalone="no"?>
<svg
   xmlns:dc="http://purl.org/dc/elements/1.1/"
   xmlns:cc="http://creativecommons.org/ns#"
   xmlns:rdf="http://www.w3.org/1999/02/22-rdf-syntax-ns#"
   xmlns:svg="http://www.w3.org/2000/svg"
   xmlns="http://www.w3.org/2000/svg"
   viewBox="0 0 400 394.6488294314381"
   height="394.6488294314381"
   width="400"
   version="1.1"
   id="svg">
  <metadata
     id="metadata10">
    <rdf:RDF>
      <cc:Work
         rdf:about="">
        <dc:format>image/svg+xml</dc:format>
        <dc:type
           rdf:resource="http://purl.org/dc/dcmitype/StillImage" />
        <dc:title></dc:title>
      </cc:Work>
    </rdf:RDF>
  </metadata>
  <defs
     id="defs8" />
  <g
     id="svgg">
    <path
       fill-rule="evenodd"
       fill="#ffffff"
       stroke="none"
       d="M96.908 80.582 C 94.858 81.178,93.401 83.674,92.316 88.450 C 92.094 89.427,91.767 90.409,91.589 90.632 C 91.411 90.854,91.141 92.009,90.989 93.198 C 90.838 94.387,90.543 95.690,90.335 96.093 C 88.872 98.929,88.874 122.190,90.339 125.042 C 90.543 125.440,90.820 126.612,90.955 127.647 C 91.090 128.683,91.470 130.051,91.800 130.688 C 92.892 132.800,92.331 134.940,90.191 136.821 C 89.945 137.038,88.963 138.282,88.010 139.585 C 87.058 140.888,86.145 142.014,85.982 142.086 C 85.819 142.159,85.686 142.383,85.686 142.584 C 85.686 142.785,85.106 143.792,84.397 144.821 C 83.314 146.395,82.028 148.645,80.509 151.629 C 77.040 158.439,74.637 166.322,72.865 176.703 C 72.139 180.957,72.020 199.305,72.692 203.356 C 72.926 204.768,73.366 207.611,73.669 209.674 C 74.552 215.682,75.105 218.156,77.024 224.679 C 78.498 229.693,79.414 232.362,79.794 232.754 C 79.994 232.961,80.158 233.377,80.158 233.680 C 80.158 234.772,86.511 246.891,87.652 247.976 C 87.767 248.085,88.393 248.973,89.044 249.951 C 89.694 250.928,90.441 251.954,90.702 252.231 C 90.964 252.508,91.852 253.567,92.677 254.584 C 94.638 257.004,97.639 259.985,100.316 262.173 C 101.500 263.141,102.774 264.238,103.148 264.613 C 103.907 265.372,107.630 267.984,109.289 268.919 C 109.881 269.253,111.076 269.980,111.945 270.535 C 113.671 271.638,121.548 275.468,124.383 276.584 C 127.668 277.876,128.001 277.999,130.441 278.827 C 134.659 280.257,139.894 281.655,143.637 282.351 C 144.780 282.563,146.727 283.001,147.965 283.323 C 149.203 283.645,150.880 283.909,151.693 283.909 C 152.505 283.909,154.193 284.176,155.444 284.501 C 156.694 284.827,158.377 285.094,159.182 285.094 C 162.330 285.094,162.779 286.500,160.513 289.266 C 159.753 290.193,159.131 291.144,159.131 291.379 C 159.131 291.614,158.968 291.807,158.769 291.807 C 158.570 291.807,157.851 292.917,157.172 294.274 C 156.492 295.632,155.797 297.009,155.626 297.335 C 154.506 299.473,153.996 300.617,153.985 301.019 C 153.977 301.273,153.628 302.192,153.208 303.060 C 152.789 303.929,152.433 305.173,152.418 305.824 C 152.403 306.476,152.137 307.453,151.826 307.996 C 151.516 308.539,151.256 309.530,151.248 310.198 C 151.228 311.938,148.800 313.941,145.830 314.666 C 145.002 314.868,143.791 315.213,143.139 315.432 C 135.883 317.868,123.724 318.184,116.486 316.125 C 113.819 315.367,112.897 314.959,106.900 311.885 C 103.600 310.193,97.581 304.159,94.187 299.139 C 90.570 293.791,89.095 291.801,86.987 289.422 C 81.216 282.910,74.421 278.455,67.720 276.787 C 53.815 273.329,47.946 278.812,58.146 285.731 C 59.068 286.357,59.911 286.958,60.020 287.068 C 60.128 287.178,61.008 287.800,61.974 288.451 C 66.020 291.177,73.621 299.265,75.147 302.470 C 75.302 302.795,75.772 303.593,76.192 304.245 C 76.613 304.896,78.317 308.184,79.980 311.550 C 81.643 314.916,83.151 317.937,83.333 318.263 C 83.514 318.588,84.153 319.832,84.754 321.027 C 88.956 329.387,101.191 338.104,111.352 339.979 C 112.330 340.160,113.653 340.509,114.294 340.756 C 117.199 341.876,131.804 342.695,136.821 342.020 C 138.559 341.786,141.491 341.397,143.337 341.154 C 145.183 340.912,147.255 340.620,147.941 340.505 C 150.236 340.122,150.247 340.212,150.247 359.526 C 150.247 382.121,150.313 381.608,146.997 384.843 C 145.253 386.544,144.100 387.364,143.451 387.364 C 140.901 387.364,142.708 388.744,145.414 388.863 C 147.425 388.951,148.075 389.120,148.075 389.554 C 148.075 389.997,148.654 390.128,150.596 390.128 C 152.784 390.128,153.143 390.232,153.323 390.918 C 153.506 391.621,153.861 391.708,156.540 391.708 C 158.852 391.708,159.604 391.845,159.778 392.300 C 159.955 392.761,160.738 392.892,163.320 392.892 C 166.002 392.892,166.634 393.005,166.634 393.485 C 166.634 393.978,167.423 394.077,171.372 394.077 C 174.268 394.077,176.111 394.231,176.111 394.472 C 176.111 394.731,184.337 394.867,200.000 394.867 C 215.663 394.867,223.889 394.731,223.889 394.472 C 223.889 394.231,225.732 394.077,228.628 394.077 C 232.577 394.077,233.366 393.978,233.366 393.485 C 233.366 393.005,233.998 392.892,236.680 392.892 C 239.262 392.892,240.045 392.761,240.222 392.300 C 240.396 391.845,241.148 391.708,243.460 391.708 C 246.139 391.708,246.494 391.621,246.677 390.918 C 246.856 390.233,247.216 390.128,249.385 390.128 C 251.153 390.128,251.979 389.961,252.205 389.559 C 252.413 389.186,253.340 388.947,254.886 388.868 C 257.105 388.754,258.931 387.364,256.862 387.364 C 255.875 387.364,252.448 384.296,251.360 382.439 L 250.394 380.791 250.217 350.218 C 250.035 318.796,249.569 309.243,248.037 305.502 C 247.786 304.891,247.581 303.964,247.581 303.443 C 247.581 302.471,247.021 301.002,245.325 297.532 C 243.986 294.792,243.215 293.613,239.361 288.417 C 237.490 285.894,237.738 285.348,240.894 285.035 C 242.314 284.895,244.178 284.585,245.035 284.346 C 245.893 284.108,247.317 283.913,248.201 283.911 C 249.084 283.910,250.684 283.658,251.755 283.350 C 252.826 283.043,254.501 282.667,255.479 282.516 C 256.456 282.365,258.855 281.808,260.809 281.279 C 262.764 280.750,265.074 280.138,265.943 279.918 C 267.977 279.403,274.443 277.201,276.407 276.354 C 276.950 276.120,277.927 275.701,278.578 275.423 C 280.199 274.730,287.082 271.343,288.055 270.760 C 289.497 269.894,295.550 265.965,296.070 265.556 C 296.352 265.334,296.885 264.881,297.255 264.548 C 297.625 264.215,298.815 263.247,299.901 262.396 C 301.856 260.864,308.782 253.910,308.784 253.477 C 308.785 253.353,309.331 252.642,309.997 251.897 C 310.663 251.152,311.725 249.743,312.356 248.766 C 312.987 247.789,313.641 246.802,313.810 246.573 C 314.554 245.562,315.160 244.531,315.698 243.364 C 316.016 242.673,316.457 241.996,316.677 241.860 C 316.898 241.723,317.078 241.325,317.078 240.975 C 317.078 240.625,317.309 240.058,317.591 239.715 C 317.873 239.372,318.516 238.115,319.020 236.920 C 319.524 235.726,320.271 234.018,320.679 233.126 C 321.087 232.233,321.422 231.247,321.422 230.934 C 321.422 230.621,321.589 230.196,321.794 229.990 C 321.998 229.784,322.345 228.904,322.564 228.036 C 322.782 227.167,323.405 224.857,323.946 222.902 C 327.574 209.816,329.489 180.120,327.182 172.754 C 326.842 171.668,326.561 170.381,326.559 169.893 C 326.557 169.405,326.220 167.984,325.811 166.734 C 325.402 165.484,324.700 163.307,324.250 161.895 C 323.314 158.954,322.196 155.997,321.264 153.998 C 320.609 152.592,320.324 152.048,319.509 150.642 C 319.257 150.207,318.887 149.478,318.688 149.021 C 317.825 147.041,315.005 142.793,312.424 139.585 C 308.464 134.663,307.918 133.798,308.122 132.765 C 308.450 131.100,309.228 128.279,309.780 126.752 C 311.857 121.006,311.940 105.239,309.947 95.360 C 309.727 94.274,309.391 92.566,309.199 91.564 C 309.007 90.562,308.379 88.429,307.803 86.825 C 307.227 85.222,306.583 83.334,306.372 82.631 C 305.665 80.280,304.936 80.203,295.341 81.469 C 293.051 81.772,290.829 82.200,290.406 82.420 C 289.982 82.641,288.795 82.943,287.768 83.092 C 286.742 83.241,285.811 83.510,285.700 83.690 C 285.588 83.870,284.881 84.133,284.128 84.274 C 283.374 84.415,282.262 84.790,281.655 85.106 C 281.049 85.422,280.353 85.682,280.109 85.684 C 278.141 85.694,263.134 93.388,256.253 97.914 C 250.909 101.429,249.498 101.641,243.633 99.811 C 242.185 99.359,238.496 98.623,234.156 97.919 C 232.744 97.690,230.253 97.242,228.619 96.925 C 226.985 96.607,224.845 96.347,223.864 96.347 C 222.883 96.347,219.955 96.059,217.358 95.707 C 210.655 94.797,187.811 94.799,182.428 95.710 C 180.365 96.059,177.773 96.345,176.667 96.346 C 175.561 96.347,173.784 96.612,172.718 96.936 C 171.652 97.259,170.247 97.524,169.595 97.523 C 167.337 97.523,158.358 99.312,152.478 100.933 C 150.204 101.560,150.143 101.555,148.573 100.637 C 146.387 99.359,142.682 97.086,141.418 96.248 C 140.845 95.867,139.842 95.284,139.191 94.951 C 138.539 94.619,137.295 93.945,136.426 93.453 C 134.058 92.113,130.333 90.212,128.332 89.321 C 127.354 88.886,125.400 87.992,123.988 87.335 C 121.404 86.132,118.938 85.173,116.604 84.464 C 115.910 84.253,114.843 83.821,114.235 83.504 C 113.627 83.186,112.718 82.926,112.215 82.924 C 111.712 82.923,110.912 82.714,110.438 82.461 C 109.655 82.041,107.665 81.555,102.665 80.559 C 100.446 80.117,98.483 80.125,96.908 80.582 M74.334 282.224 C 74.714 282.567,75.025 283.333,75.025 283.928 C 75.025 285.837,72.230 285.851,70.517 283.950 C 68.778 282.019,72.325 280.414,74.334 282.224 M82.698 289.577 C 84.884 292.244,84.531 293.386,81.523 293.386 C 79.149 293.386,77.514 290.715,78.741 288.842 C 79.739 287.320,81.048 287.563,82.698 289.577 M89.715 298.941 C 92.758 300.356,92.858 305.232,89.844 305.232 C 88.846 305.232,86.675 303.043,86.054 301.411 C 85.246 299.284,87.370 297.851,89.715 298.941 M99.771 310.283 C 102.618 311.817,103.619 314.776,101.803 316.289 C 98.934 318.681,93.473 313.202,96.021 310.489 C 97.032 309.413,98.053 309.357,99.771 310.283 M115.992 320.068 C 117.479 321.623,117.580 322.302,116.486 323.396 C 114.831 325.050,110.314 324.076,109.399 321.867 C 107.987 318.458,113.114 317.059,115.992 320.068 M147.222 319.290 C 149.405 320.818,149.061 323.272,146.479 324.589 C 144.142 325.781,142.176 325.137,140.824 322.734 C 139.625 320.605,144.982 317.721,147.222 319.290 M133.020 322.377 C 134.944 324.301,132.925 326.643,129.297 326.696 C 126.102 326.742,124.377 324.301,126.061 322.117 C 127.140 320.719,131.525 320.882,133.020 322.377 "
       id="path0" />
    <path
       id="path1"
       d="m 176.111,0.395 c -11.44884,0.43838411 -21.83521,4.0061981 -32.65188,5.795 -6.04179,2.787002 -11.94466,4.111002 -18.08912,6.446 -4.98376,2.114503 -9.6266,4.253823 -14.844,6.712 -6.30776,3.495443 -12.681091,6.488385 -19.551,10.662 -3.939001,3.540654 -8.932433,5.652115 -13.384,9.477 -7.734133,5.719184 -15.92274,13.008448 -22.705,20.138 -7.305339,6.988555 -13.443662,14.96387 -19.348,23.087 -5.202619,6.355925 -8.706416,13.254248 -12.636,19.953 -2.969201,5.55525 -6.173836,11.38797 -8.094,17.374 -3.820251,6.76289 -5.5307529,14.35581 -7.856,21.323 C 3.5722274,152.97667 0.7185777,164.74901 0.15620117,177.50942 0.1807733,200.21628 -1.7286297,224.22734 4.738,245.607 c 1.5400976,8.23792 4.9818399,15.88731 7.305,23.944 3.182792,6.11197 5.283932,12.81299 8.885,18.945 4.576393,9.08652 10.33933,18.28555 16.584,26.608 8.140375,11.37312 18.663753,21.72214 28.826,31.404 6.889516,5.44599 13.363342,11.19065 20.73,15.585 4.677361,2.80504 9.076195,6.3008 14.132,8.687 5.93508,2.74123 11.50667,6.05467 17.457,8.687 5.45357,2.24119 10.89318,4.11871 16.4205,6.5845 14.11147,7.05108 17.28085,-11.96274 15.16943,-22.55318 0.96035,-12.83062 2.4931,-29.82906 -15.71516,-21.2929 -21.15588,1.7334 -45.703224,-6.59293 -53.351879,-28.23233 -3.150341,-16.3477 -23.473755,-23.67585 -27.286266,-36.60546 18.676033,-6.58465 34.284497,11.40424 43.247562,25.64281 12.028373,16.11162 37.402383,18.98847 53.669473,8.51779 0.40696,-12.6851 22.70042,-30.76896 -2.84566,-28.20523 C 117.16982,278.6694 86.931943,259.10751 78.025219,228.00087 67.758495,196.84294 69.671988,159.30876 92.2075,133.84113 88.375569,116.94096 86.632872,97.054447 95.616375,81.40775 c 18.188265,-2.324596 35.608755,9.411161 51.094185,18.122156 15.65731,2.352724 33.20138,-6.392371 49.99522,-4.493377 18.93907,-1.707465 37.89334,4.625297 56.14561,4.914112 15.85484,-9.586829 33.7343,-20.356062 52.84805,-18.671063 9.49276,17.260065 3.31021,38.302542 4.35306,55.308592 19.83029,21.8212 20.84399,53.2635 15.1688,80.70404 -4.77402,31.45602 -30.81076,56.42819 -61.43805,63.19041 -10.8915,4.21373 -36.39488,0.69971 -18.45825,17.04938 7.72544,20.59859 3.83492,43.31275 4.96292,64.93588 1.28894,8.35545 -3.7925,20.37334 6.3607,24.58024 8.9586,0.2942 16.64723,-4.93656 24.94638,-7.58112 5.7614,-2.71098 10.04736,-5.28972 15.937,-7.897 4.35799,-2.44217 9.44755,-5.13194 13.426,-8.293 6.34982,-3.25638 11.34566,-8.04915 17.37363,-12.04325 5.55679,-5.11642 11.72156,-10.49072 16.78237,-15.99175 7.30535,-6.60289 13.62868,-14.95696 19.348,-22.89 5.60648,-7.36477 11.32342,-16.90529 15.4,-25.284 3.06022,-4.72093 4.67204,-11.19487 7.502,-16.11 2.70031,-7.61314 5.55381,-14.38101 6.83462,-22.06025 7.37575,-19.8421 5.65036,-43.62626 5.74469,-65.46829 0.40099,-13.79925 -2.63263,-27.03297 -5.86631,-39.54246 -2.23404,-6.74446 -4.39423,-13.61957 -6.89112,-20.92512 C 383.44625,118.0803 382.6374,111.24365 379.072,106.371 375.02689,97.842794 369.77583,90.042679 364.462,82.527 359.46482,75.756096 354.14259,68.498154 347.878,62.389 340.59076,55.047225 332.87284,47.082336 324.383,41.066 320.46024,37.472609 315.20042,34.407869 310.958,31.589 306.54855,28.110928 300.02671,25.26153 295.90325,22.27725 289.12073,19.740126 283.25678,15.774964 276.292,13.425 267.9365,9.7490937 259.89004,7.9222159 251.43325,4.868375 239.31913,2.8230512 227.35277,-0.45066514 214.44178,0.05668945 201.67138,0.09483099 188.86134,-0.30714644 176.111,0.395 Z M 70.704,282.107 c -0.731202,8.54985 10.389941,-1.75106 0,0 z m 8.037,6.735 c -0.435993,11.13779 12.388084,-0.57341 0,0 z m 8.224,9.94 c -4.544436,12.39534 14.93776,2.1345 0,0 z m 9.056,11.707 c -0.702593,14.98404 15.70162,-0.75984 0,0 z m 15.026,8.055 c -5.79551,10.9546 15.62323,1.91535 0,0 z m 31.815,1.019 c -8.16345,13.04139 17.27482,-0.99519 0,0 z m -15.32,1.723 c -8.06395,10.9524 16.59862,0.91453 0,0 z"
       style="fill:#171515;fill-rule:evenodd;stroke:none" />
  </g>
</svg>
